<?xml version="1.0" encoding="iso-8859-1"?>
<!-- Generator: Adobe Illustrator 19.0.0, SVG Export Plug-In . SVG Version: 6.00 Build 0)  -->
<svg xmlns="http://www.w3.org/2000/svg" xmlns:xlink="http://www.w3.org/1999/xlink" version="1.1" id="Capa_1" x="0px" y="0px" viewBox="0 0 512 512" style="enable-background:new 0 0 512 512;" xml:space="preserve" width="512px" height="512px">
<g>
	<g>
		<path d="M375.661,411.524c-11.927-20.657-38.432-27.758-59.091-15.833c-20.656,11.926-27.759,38.434-15.833,59.09    c5.777,10.007,15.105,17.164,26.266,20.155c3.727,0.998,7.508,1.492,11.266,1.492c7.494,0,14.893-1.966,21.558-5.814    C380.483,458.688,387.585,432.18,375.661,411.524z M352.194,457.391c-6.474,3.738-14.021,4.729-21.239,2.797    c-7.222-1.935-13.257-6.567-16.995-13.041c-7.717-13.366-3.121-30.518,10.244-38.234c4.397-2.538,9.203-3.745,13.948-3.745    c9.681,0,19.108,5.021,24.287,13.989C370.155,432.523,365.56,449.675,352.194,457.391z" fill="#f8f9fa"/>
	</g>
</g>
<g>
	<g>
		<path d="M452.064,440.746c-10.932,6.312-24.969,2.554-31.282-8.383l-4.183-7.245c-1.118-10.985-4.498-21.725-10.088-31.407    c-17.344-30.038-52.833-45.11-86.215-37.369L115.03,0.809l-6.611,3.817c-30.378,17.539-40.822,56.52-23.285,86.898L186.91,267.804    c8.694,15.061,21.359,27.425,36.623,35.756c12.802,6.988,23.424,17.359,30.716,29.989l26.378,45.686    c-24.65,26.239-28.518,65.937-8.699,96.701c10.531,16.348,26.757,28.172,45.69,33.295c6.846,1.852,13.824,2.769,20.766,2.769    c12.263,0,24.408-2.862,35.477-8.487c19.519-9.921,33.695-26.935,39.921-47.91c0.602-2.026,1.093-4.074,1.527-6.131    c7.038,6.226,16.114,9.602,25.37,9.602c6.471,0,13.025-1.645,19.02-5.106L452.064,440.746z M399.146,451.258    c-5.021,16.918-16.457,30.641-32.203,38.644c-28.666,14.568-64.765,4.802-82.182-22.234    c-16.898-26.23-12.452-60.507,10.568-81.503l4.537-4.138l-32.396-56.111c-8.695-15.06-21.359-27.424-36.623-35.756    c-12.802-6.988-23.424-17.358-30.716-29.989L98.356,83.89c-12.031-20.838-6.735-47.002,11.387-61.704L313.09,374.393l5.852-1.861    c28.26-8.979,59.525,3.138,74.348,28.812C402.093,416.594,404.172,434.32,399.146,451.258z" fill="#f8f9fa"/>
	</g>
</g>
<g>
	<g>
		<path d="M172.977,421.147c-2.99-11.16-10.149-20.489-20.155-26.266c-10.007-5.778-21.663-7.312-32.824-4.322    c-11.16,2.99-20.488,10.149-26.266,20.155c-11.926,20.656-4.822,47.164,15.833,59.09c6.796,3.924,14.221,5.787,21.555,5.787    c14.961,0,29.533-7.76,37.535-21.62C174.432,443.966,175.967,432.308,172.977,421.147z M155.434,446.337    c-7.717,13.366-24.869,17.961-38.235,10.245c-13.366-7.717-17.961-24.869-10.245-38.235c3.738-6.474,9.774-11.106,16.995-13.041    c2.412-0.646,4.859-0.966,7.291-0.966c4.85,0,9.637,1.272,13.949,3.762c6.474,3.738,11.106,9.774,13.041,16.995    S159.172,439.863,155.434,446.337z" fill="#f8f9fa"/>
	</g>
</g>
<g>
	<g>
		<path d="M217.803,328.459l-12.71-8.458c-1.142,1.721-2.21,3.438-3.171,5.104l-32.397,56.112l4.537,4.138    c21.905,19.979,27.046,53.116,12.222,78.793c-8.481,14.689-22.201,25.204-38.635,29.607c-16.434,4.403-33.573,2.158-48.263-6.323    c-14.689-8.48-25.203-22.201-29.607-38.634c-4.403-16.434-2.158-33.573,6.323-48.263c14.823-25.676,46.091-37.792,74.347-28.812    l5.852,1.861l36.519-63.254l-13.221-7.634l-30.505,52.836c-33.38-7.739-68.872,7.332-86.215,37.369    c-10.52,18.221-13.307,39.475-7.848,59.847c5.458,20.372,18.5,37.385,36.721,47.904c12.392,7.154,25.933,10.554,39.308,10.553    c27.28-0.002,53.852-14.149,68.445-39.425c17.342-30.039,12.651-68.31-10.745-93.348l26.382-45.696    C215.942,331.351,216.837,329.911,217.803,328.459z" fill="#f8f9fa"/>
	</g>
</g>
<g>
	<g>
		<path d="M390.613,42.443c-4.397-16.412-14.923-30.13-29.639-38.626L354.364,0L243.993,191.167l13.221,7.634l102.44-177.43    c7.882,6.375,13.538,15.043,16.212,25.023c3.342,12.473,1.627,25.502-4.83,36.686l-94.723,164.067l13.221,7.634l94.724-164.067    C392.755,75.998,395.011,58.856,390.613,42.443z" fill="#f8f9fa"/>
	</g>
</g>
<g>
	<g>
		<rect x="223.797" y="259.806" width="15.267" height="15.267" fill="#f8f9fa"/>
	</g>
</g>
<g>
	<g>
		<rect x="255.349" y="27.745" width="15.267" height="15.267" fill="#f8f9fa"/>
	</g>
</g>
<g>
	<g>
		<rect x="194.281" y="27.745" width="15.267" height="15.267" fill="#f8f9fa"/>
	</g>
</g>
<g>
	<g>
		<rect x="224.815" y="27.745" width="15.267" height="15.267" fill="#f8f9fa"/>
	</g>
</g>
<g>
</g>
<g>
</g>
<g>
</g>
<g>
</g>
<g>
</g>
<g>
</g>
<g>
</g>
<g>
</g>
<g>
</g>
<g>
</g>
<g>
</g>
<g>
</g>
<g>
</g>
<g>
</g>
<g>
</g>
</svg>
