<?xml version="1.0" encoding="iso-8859-1"?>
<!-- Generator: Adobe Illustrator 19.0.0, SVG Export Plug-In . SVG Version: 6.00 Build 0)  -->
<svg xmlns="http://www.w3.org/2000/svg" xmlns:xlink="http://www.w3.org/1999/xlink" version="1.1" id="Capa_1" x="0px" y="0px" viewBox="0 0 512 512" style="enable-background:new 0 0 512 512;" xml:space="preserve" width="512px" height="512px">
<g>
	<g>
		<path d="M512,169.076V122.85h-20.098v-22.61c0-20.779-16.905-37.684-37.684-37.684h-85.889    c-9.677-17.551-23.707-32.312-40.804-42.879C309.088,8.283,287.889,2.261,266.218,2.261h-15.914    c-21.671,0-42.87,6.022-61.306,17.415c-17.097,10.568-31.127,25.329-40.804,42.879H62.304c-20.779,0-37.684,16.905-37.684,37.684    v22.61H4.522v46.226H24.62v39.191H5.025H0v15.074h5.025v185.908H0v15.074h5.025H24.62v40.196H4.522v45.221H512v-45.221h-20.098    V169.076H512z M39.694,100.239c0-12.467,10.143-22.61,22.61-22.61h95.1l2.082-4.166c17.311-34.62,52.109-56.128,90.817-56.128    h15.914c38.708,0,73.507,21.507,90.817,56.128l2.082,4.166h95.1c12.467,0,22.61,10.144,22.61,22.61v22.61H39.694V100.239z     M20.098,223.341h4.522h15.469l-19.991,19.991V223.341z M89.939,190.179v45.221v229.119H39.694v-40.196h25.625h5.024v-15.074    h-5.024V223.341h5.024v-15.074h-5.024H39.694v-39.191h437.134v295.443H241.68V235.399v-45.221H89.939z M105.013,220.326v-15.074    h121.594v15.074H105.013z M226.607,235.399v229.119H105.013V235.399H226.607z M30.757,409.248l19.488-19.488v19.488H30.757z     M20.098,264.649l30.147-30.147v17.495l-30.147,30.147V264.649z M20.098,303.464l30.147-30.147v17.495l-30.147,30.147V303.464z     M20.098,342.278l30.147-30.147v17.495l-30.147,30.147V342.278z M20.098,398.588v-17.495l30.147-30.147v17.495L20.098,398.588z     M496.926,479.592v15.074H19.596v-15.074h5.025h65.319H241.68h250.222H496.926z M24.62,154.002h-5.025v-16.078h5.025h467.282    h5.025v16.078h-5.025H24.62z" fill="#f8f9fa"/>
	</g>
</g>
<g>
	<g>
		<path d="M256.754,190.179v45.221v131.643h205.001V235.399v-45.221H256.754z M446.681,351.969H271.827V235.399h174.854V351.969z     M446.681,220.326H271.827v-15.074h174.854V220.326z" fill="#f8f9fa"/>
	</g>
</g>
<g>
	<g>
		<rect x="412.012" y="382.116" width="15.074" height="15.074" fill="#f8f9fa"/>
	</g>
</g>
<g>
	<g>
		<rect x="349.708" y="382.116" width="15.074" height="15.074" fill="#f8f9fa"/>
	</g>
</g>
<g>
	<g>
		<rect x="380.86" y="382.116" width="15.074" height="15.074" fill="#f8f9fa"/>
	</g>
</g>
<g>
	<g>
		<rect x="443.164" y="382.116" width="15.074" height="15.074" fill="#f8f9fa"/>
	</g>
</g>
<g>
	<g>
		<rect x="256.251" y="382.116" width="15.074" height="15.074" fill="#f8f9fa"/>
	</g>
</g>
<g>
	<g>
		<rect x="318.555" y="382.116" width="15.074" height="15.074" fill="#f8f9fa"/>
	</g>
</g>
<g>
	<g>
		<rect x="287.403" y="382.116" width="15.074" height="15.074" fill="#f8f9fa"/>
	</g>
</g>
<g>
	<g>
		
			<rect x="122.462" y="294.185" transform="matrix(0.7071 -0.7071 0.7071 0.7071 -164.7851 205.6164)" width="86.692" height="15.073" fill="#f8f9fa"/>
	</g>
</g>
<g>
	<g>
		
			<rect x="122.464" y="345.433" transform="matrix(0.7071 -0.7071 0.7071 0.7071 -201.0224 220.6281)" width="86.692" height="15.073" fill="#f8f9fa"/>
	</g>
</g>
<g>
	<g>
		<rect x="221.582" y="46.477" width="15.074" height="15.074" fill="#f8f9fa"/>
	</g>
</g>
<g>
	<g>
		<rect x="281.876" y="46.477" width="13.064" height="15.074" fill="#f8f9fa"/>
	</g>
</g>
<g>
	<g>
		<rect x="251.729" y="46.477" width="15.074" height="15.074" fill="#f8f9fa"/>
	</g>
</g>
<g>
</g>
<g>
</g>
<g>
</g>
<g>
</g>
<g>
</g>
<g>
</g>
<g>
</g>
<g>
</g>
<g>
</g>
<g>
</g>
<g>
</g>
<g>
</g>
<g>
</g>
<g>
</g>
<g>
</g>
</svg>
