<?xml version="1.0" encoding="utf-8"?>
<!-- Generator: Adobe Illustrator 21.1.0, SVG Export Plug-In . SVG Version: 6.00 Build 0)  -->
<svg version="1.1" id="Capa_1" xmlns="http://www.w3.org/2000/svg" xmlns:xlink="http://www.w3.org/1999/xlink" x="0px" y="0px"
	 viewBox="0 0 512 287.5" style="enable-background:new 0 0 512 287.5;" xml:space="preserve">
<style type="text/css">
	.st0{fill:#FFC853;}
	.st1{fill:#E0E0E0;}
	.st2{fill:#FFFFFF;}
	.st3{fill:#006DF0;}
	.st4{fill:#ED593B;}
</style>
<g>
	<path class="st0" d="M458.7,210.2c26.7-10.2,45.7-36.1,45.7-66.4l0,0c0-30.3-19-56.2-45.7-66.4V210.2z"/>
	<path class="st0" d="M53.3,77.3C26.6,87.5,7.6,113.4,7.6,143.7l0,0c0,30.3,19,56.2,45.7,66.4V77.3z"/>
</g>
<g>
	<rect x="53.3" y="52.3" class="st1" width="30.5" height="182.9"/>
	<rect x="428.2" y="52.3" class="st1" width="30.5" height="182.9"/>
</g>
<path class="st2" d="M303.3,72.6c21.5,0,40.6,13.5,47.8,33.7l26.7,74.8c7.2,20.2,26.4,33.7,47.8,33.7h-53.1
	c-21.5,0-40.6-13.5-47.8-33.7l-26.7-74.8c-7.2-20.2-26.4-33.7-47.8-33.7H303.3z"/>
<path class="st3" d="M250.2,72.6c21.5,0,40.6,13.5,47.8,33.7l26.7,74.8c7.2,20.2,26.4,33.7,47.8,33.7h-53.1
	c-21.5,0-40.6-13.5-47.8-33.7L245,106.3c-7.2-20.2-26.4-33.7-47.8-33.7H250.2z"/>
<path class="st2" d="M197.2,72.6c21.5,0,40.6,13.5,47.8,33.7l26.7,74.8c7.2,20.2,26.4,33.7,47.8,33.7h-53.1
	c-21.5,0-40.6-13.5-47.8-33.7l-26.7-74.8c-7.2-20.2-26.4-33.7-47.8-33.7H197.2z"/>
<path class="st4" d="M144.1,72.6c21.5,0,40.6,13.5,47.8,33.7l26.7,74.8c7.2,20.2,26.4,33.7,47.8,33.7h-53.1
	c-21.5,0-40.6-13.5-47.8-33.7l-26.7-74.8c-7.2-20.2-26.4-33.7-47.8-33.7H144.1z"/>
<path class="st3" d="M112.5,181.1l-26.7-74.8c-0.6-1.6-1.3-3.2-2-4.8v113.3h76.5C138.9,214.9,119.7,201.4,112.5,181.1z"/>
<path class="st2" d="M85.8,106.3l26.7,74.8c7.2,20.2,26.4,33.7,47.8,33.7h53.1c-21.5,0-40.6-13.5-47.8-33.7l-26.7-74.8
	c-7.2-20.2-26.4-33.7-47.8-33.7h-7.2v28.9C84.5,103.1,85.2,104.7,85.8,106.3z"/>
<path class="st4" d="M351.1,106.3l26.7,74.8c7.2,20.2,26.4,33.7,47.8,33.7h2.5v-41.3l-24-67.2c-7.2-20.2-26.4-33.7-47.8-33.7h-53.1
	C324.8,72.6,343.9,86.1,351.1,106.3z"/>
<path class="st2" d="M404.2,106.3l24,67.2V72.6h-71.8C377.8,72.6,397,86.1,404.2,106.3z"/>
<path d="M0,143.7c0,30.6,18.2,58.7,45.7,71.5v27.6h45.7v-20.3h68.9h53.1h53.1h53.1h53.1h48v20.3h45.7v-27.6
	c27.5-12.8,45.7-40.8,45.7-71.5s-18.2-58.7-45.7-71.5V44.7h-45.7V65h-64.2h-53.1h-53.1h-53.1h-53.1H91.4V44.7H45.7v27.6
	C18.2,85.1,0,113.1,0,143.7z M15.2,143.7c0-22.2,11.9-42.8,30.5-54.2V198C27.1,186.6,15.2,166,15.2,143.7z M91.4,207.2v-62.5
	l13.9,39c3.3,9.2,8.8,17.2,15.7,23.5L91.4,207.2L91.4,207.2z M119.7,178.6L93,103.8c-0.3-0.8-0.6-1.6-0.9-2.4
	c-0.1-0.2-0.2-0.5-0.3-0.7c-0.1-0.3-0.2-0.5-0.3-0.8V80.3c0.2,0,0.4,0,0.6,0c0.3,0,0.6,0,0.9,0c0.3,0,0.6,0,0.8,0
	c0.3,0,0.6,0,0.8,0.1c0.3,0,0.6,0.1,0.8,0.1c0.3,0,0.5,0.1,0.8,0.1c0.3,0,0.6,0.1,0.9,0.1c0.3,0,0.5,0.1,0.8,0.1
	c0.3,0,0.6,0.1,0.9,0.2c0.3,0,0.5,0.1,0.8,0.1c0.3,0.1,0.6,0.1,0.9,0.2c0.2,0.1,0.5,0.1,0.7,0.2c0.3,0.1,0.6,0.1,0.9,0.2
	c0.2,0.1,0.5,0.1,0.7,0.2c0.3,0.1,0.6,0.2,0.9,0.3c0.2,0.1,0.5,0.1,0.7,0.2c0.3,0.1,0.6,0.2,0.9,0.3c0.2,0.1,0.5,0.2,0.7,0.2
	c0.3,0.1,0.6,0.2,0.9,0.3c0.2,0.1,0.4,0.2,0.7,0.3c0.3,0.1,0.6,0.2,0.8,0.4c0.2,0.1,0.4,0.2,0.7,0.3c0.3,0.1,0.6,0.3,0.8,0.4
	c0.2,0.1,0.4,0.2,0.6,0.3c0.3,0.1,0.6,0.3,0.8,0.4c0.2,0.1,0.4,0.2,0.6,0.3c0.3,0.1,0.5,0.3,0.8,0.5c0.2,0.1,0.4,0.2,0.6,0.3
	c0.3,0.2,0.5,0.3,0.8,0.5c0.2,0.1,0.4,0.2,0.6,0.4c0.3,0.2,0.5,0.4,0.8,0.5c0.2,0.1,0.4,0.3,0.6,0.4c0.3,0.2,0.5,0.4,0.8,0.6
	c0.2,0.1,0.4,0.3,0.5,0.4c0.3,0.2,0.5,0.4,0.7,0.6c0.2,0.1,0.4,0.3,0.5,0.4c0.2,0.2,0.5,0.4,0.7,0.6c0.2,0.1,0.3,0.3,0.5,0.4
	c0.2,0.2,0.5,0.4,0.7,0.7c0.2,0.2,0.3,0.3,0.5,0.5c0.2,0.2,0.5,0.5,0.7,0.7c0.2,0.2,0.3,0.3,0.5,0.5c0.2,0.2,0.4,0.5,0.7,0.7
	c0.2,0.2,0.3,0.3,0.5,0.5c0.2,0.2,0.4,0.5,0.6,0.7c0.1,0.2,0.3,0.3,0.4,0.5c0.2,0.3,0.4,0.5,0.6,0.8c0.1,0.2,0.3,0.3,0.4,0.5
	c0.2,0.3,0.4,0.5,0.6,0.8c0.1,0.2,0.3,0.4,0.4,0.5c0.2,0.3,0.4,0.5,0.6,0.8c0.1,0.2,0.2,0.4,0.4,0.5c0.2,0.3,0.4,0.6,0.5,0.9
	c0.1,0.2,0.2,0.4,0.3,0.5c0.2,0.3,0.4,0.6,0.5,0.9c0.1,0.2,0.2,0.3,0.3,0.5c0.2,0.3,0.3,0.6,0.5,0.9c0.1,0.2,0.2,0.4,0.3,0.6
	c0.2,0.3,0.3,0.7,0.5,1c0.1,0.2,0.2,0.4,0.3,0.5c0.2,0.4,0.3,0.8,0.5,1.2c0,0.1,0.1,0.2,0.1,0.4c0.2,0.5,0.4,1.1,0.6,1.6l26.7,74.8
	c0.4,1,0.8,2,1.2,3c0.1,0.2,0.2,0.4,0.3,0.6c0.4,1,0.9,1.9,1.3,2.9c0.1,0.1,0.1,0.3,0.2,0.4c0.4,0.9,0.9,1.7,1.4,2.5
	c0.1,0.2,0.2,0.3,0.3,0.5c0.5,0.9,1.1,1.8,1.7,2.6c0.1,0.2,0.2,0.4,0.4,0.5c0.6,0.8,1.2,1.7,1.8,2.5c0,0,0.1,0.1,0.1,0.1
	c0.6,0.8,1.3,1.6,2,2.4c0.1,0.2,0.3,0.3,0.4,0.5c0.7,0.8,1.4,1.6,2.1,2.3c0.1,0.1,0.2,0.2,0.3,0.2c0.7,0.7,1.4,1.3,2.1,2
	c0.1,0.1,0.2,0.2,0.3,0.3h-13.8C142.2,207.2,125.8,195.7,119.7,178.6z M417.8,206.5c-0.1,0-0.2,0-0.3-0.1c-0.9-0.2-1.7-0.4-2.6-0.6
	c-0.1,0-0.3-0.1-0.4-0.1c-0.8-0.2-1.7-0.5-2.5-0.8c-0.1,0-0.3-0.1-0.4-0.1c-0.8-0.3-1.6-0.6-2.4-0.9c-0.1-0.1-0.2-0.1-0.4-0.2
	c-0.8-0.4-1.6-0.7-2.4-1.1c-0.1,0-0.1-0.1-0.2-0.1c-0.8-0.4-1.6-0.8-2.3-1.3c-0.1,0-0.1-0.1-0.2-0.1c-0.8-0.5-1.5-0.9-2.2-1.4
	c-0.1-0.1-0.2-0.1-0.3-0.2c-0.7-0.5-1.4-1-2.1-1.5c-0.1-0.1-0.2-0.2-0.4-0.3c-0.7-0.5-1.3-1.1-2-1.7c-0.1-0.1-0.2-0.2-0.3-0.3
	c-0.6-0.6-1.3-1.2-1.9-1.8c-0.1-0.1-0.1-0.1-0.2-0.2c-0.6-0.7-1.2-1.3-1.8-2c0,0,0-0.1-0.1-0.1c-0.6-0.7-1.1-1.4-1.7-2.2
	c-0.1-0.1-0.1-0.2-0.2-0.3c-0.5-0.7-1-1.4-1.5-2.2c-0.1-0.1-0.2-0.2-0.2-0.4c-0.5-0.7-0.9-1.5-1.3-2.3c-0.1-0.1-0.1-0.2-0.2-0.4
	c-0.4-0.8-0.8-1.6-1.2-2.4c0-0.1-0.1-0.2-0.1-0.3c-0.4-0.9-0.7-1.8-1.1-2.7l-26.7-74.8c-0.4-1-0.8-2-1.2-3c-0.1-0.2-0.2-0.4-0.3-0.6
	c-0.4-1-0.9-1.9-1.3-2.9c-0.1-0.1-0.1-0.3-0.2-0.4c-0.4-0.9-0.9-1.7-1.4-2.5c-0.1-0.2-0.2-0.3-0.3-0.5c-0.5-0.9-1.1-1.8-1.7-2.6
	c-0.1-0.2-0.2-0.4-0.4-0.5c-0.6-0.8-1.1-1.6-1.7-2.4c0-0.1-0.1-0.1-0.1-0.2c-0.6-0.8-1.3-1.6-2-2.4c-0.1-0.2-0.3-0.3-0.5-0.5
	c-0.7-0.8-1.4-1.5-2.1-2.3c-0.1-0.1-0.2-0.2-0.3-0.3c-0.7-0.7-1.4-1.3-2.1-2c-0.1-0.1-0.2-0.2-0.3-0.3h13.8
	c18.2,0,34.5,11.5,40.7,28.7l23.6,65.9v32.1c0,0,0,0-0.1,0C419.6,206.8,418.7,206.7,417.8,206.5z M496.8,143.7
	c0,22.2-11.9,42.8-30.5,54.2V89.5C484.9,100.9,496.8,121.5,496.8,143.7z M435.8,59.9H451v6.3v155v6.3h-15.2v-5.1v-50.3V65V59.9z
	 M420.6,80.3v49.3l-9.2-25.8c-3.3-9.2-8.8-17.2-15.7-23.5L420.6,80.3L420.6,80.3z M344,108.9l26.7,74.8c0,0,0,0,0,0.1
	c0.4,1,0.7,2,1.2,2.9c0.1,0.2,0.2,0.5,0.3,0.7c0.4,1,0.9,1.9,1.3,2.8c0.1,0.2,0.2,0.3,0.2,0.5c0.4,0.8,0.9,1.7,1.4,2.5
	c0.1,0.2,0.2,0.3,0.3,0.5c0.5,0.9,1.1,1.8,1.6,2.6c0.1,0.2,0.3,0.4,0.4,0.6c0.6,0.8,1.1,1.6,1.7,2.4c0,0.1,0.1,0.1,0.1,0.2
	c0.6,0.8,1.3,1.6,2,2.4c0.1,0.2,0.3,0.4,0.5,0.5c0.7,0.8,1.4,1.5,2.1,2.3c0.1,0.1,0.2,0.2,0.3,0.3c0.7,0.7,1.4,1.3,2.1,2
	c0.1,0.1,0.2,0.2,0.3,0.3h-13.8c-18.2,0-34.5-11.5-40.7-28.7l-26.7-74.8c-0.4-1-0.8-2-1.2-3c-0.1-0.2-0.2-0.4-0.3-0.6
	c-0.4-1-0.9-1.9-1.3-2.9c-0.1-0.1-0.1-0.3-0.2-0.4c-0.4-0.9-0.9-1.7-1.4-2.5c-0.1-0.2-0.2-0.3-0.3-0.5c-0.5-0.9-1.1-1.8-1.7-2.6
	c-0.1-0.2-0.2-0.4-0.4-0.5c-0.6-0.8-1.1-1.6-1.7-2.4c0-0.1-0.1-0.1-0.1-0.2c-0.6-0.8-1.3-1.6-2-2.4c-0.1-0.2-0.3-0.3-0.5-0.5
	c-0.7-0.8-1.4-1.5-2.1-2.3c-0.1-0.1-0.2-0.2-0.3-0.3c-0.7-0.7-1.4-1.3-2.1-2c-0.1-0.1-0.2-0.2-0.3-0.3h13.8
	C321.5,80.3,337.8,91.8,344,108.9z M290.9,108.9l26.7,74.8c0.4,1,0.8,2,1.2,3c0.1,0.2,0.2,0.4,0.3,0.6c0.4,1,0.9,1.9,1.3,2.9
	c0.1,0.1,0.1,0.3,0.2,0.4c0.4,0.9,0.9,1.7,1.4,2.5c0.1,0.2,0.2,0.3,0.3,0.5c0.5,0.9,1.1,1.8,1.7,2.6c0.1,0.2,0.2,0.4,0.4,0.5
	c0.6,0.8,1.2,1.7,1.8,2.5c0,0,0.1,0.1,0.1,0.1c0.6,0.8,1.3,1.6,2,2.4c0.1,0.2,0.3,0.3,0.4,0.5c0.7,0.8,1.4,1.6,2.1,2.3
	c0.1,0.1,0.2,0.2,0.3,0.2c0.7,0.7,1.4,1.3,2.1,2c0.1,0.1,0.2,0.2,0.3,0.3h-13.8c-18.2,0-34.5-11.5-40.7-28.7l-26.7-74.8
	c-0.4-1-0.8-2-1.2-3c-0.1-0.2-0.2-0.4-0.3-0.6c-0.4-1-0.9-1.9-1.3-2.9c-0.1-0.1-0.2-0.3-0.2-0.4c-0.4-0.9-0.9-1.7-1.4-2.5
	c-0.1-0.2-0.2-0.3-0.3-0.5c-0.5-0.9-1.1-1.8-1.7-2.6c-0.1-0.2-0.2-0.4-0.4-0.5c-0.6-0.8-1.2-1.7-1.8-2.5c0,0-0.1-0.1-0.1-0.2
	c-0.6-0.8-1.3-1.6-2-2.4c-0.1-0.2-0.3-0.3-0.4-0.5c-0.7-0.8-1.4-1.5-2.1-2.3c-0.1-0.1-0.2-0.2-0.3-0.3c-0.7-0.7-1.4-1.3-2.1-2
	c-0.1-0.1-0.2-0.2-0.3-0.3h13.8C268.4,80.3,284.8,91.8,290.9,108.9z M237.8,108.9l26.7,74.8c0.4,1,0.8,2,1.2,3
	c0.1,0.2,0.2,0.4,0.3,0.6c0.4,1,0.9,1.9,1.3,2.9c0.1,0.1,0.1,0.3,0.2,0.4c0.4,0.9,0.9,1.7,1.4,2.5c0.1,0.2,0.2,0.3,0.3,0.5
	c0.5,0.9,1.1,1.8,1.7,2.6c0.1,0.2,0.2,0.4,0.4,0.5c0.6,0.8,1.2,1.7,1.8,2.5c0,0,0.1,0.1,0.1,0.1c0.6,0.8,1.3,1.6,2,2.4
	c0.1,0.2,0.3,0.3,0.4,0.5c0.7,0.8,1.4,1.5,2.1,2.3c0.1,0.1,0.2,0.2,0.3,0.3c0.7,0.7,1.4,1.4,2.1,2c0.1,0.1,0.2,0.2,0.3,0.3h-13.8
	c-11.9,0-23.1-5-31.1-13.2c-4.2-4.3-7.5-9.6-9.6-15.4l-26.7-74.8c-0.4-1-0.8-2-1.2-3c-0.1-0.2-0.2-0.4-0.3-0.6
	c-0.4-1-0.9-1.9-1.3-2.9c-0.1-0.1-0.1-0.3-0.2-0.4c-0.4-0.9-0.9-1.7-1.4-2.5c-0.1-0.2-0.2-0.3-0.3-0.5c-0.5-0.9-1.1-1.8-1.7-2.6
	c-0.1-0.2-0.2-0.4-0.4-0.5c-0.6-0.8-1.1-1.6-1.7-2.4c0-0.1-0.1-0.1-0.1-0.2c-0.6-0.8-1.3-1.6-2-2.4c-0.1-0.2-0.3-0.3-0.4-0.5
	c-0.7-0.8-1.4-1.5-2.1-2.3c-0.1-0.1-0.2-0.2-0.3-0.3c-0.7-0.7-1.4-1.3-2.1-2c-0.1-0.1-0.2-0.2-0.3-0.3h13.8
	C215.4,80.3,231.7,91.8,237.8,108.9z M184.8,108.9l26.7,74.8c0,0,0,0,0,0.1c0.4,1,0.7,2,1.2,2.9c0.1,0.2,0.2,0.5,0.3,0.7
	c0.4,1,0.9,1.9,1.3,2.8c0.1,0.2,0.2,0.3,0.2,0.5c0.4,0.8,0.9,1.7,1.4,2.5c0.1,0.2,0.2,0.3,0.3,0.5c0.5,0.9,1.1,1.8,1.6,2.6
	c0.1,0.2,0.3,0.4,0.4,0.6c0.6,0.8,1.1,1.6,1.7,2.4c0,0.1,0.1,0.1,0.1,0.2c0.6,0.8,1.3,1.6,2,2.4c0.1,0.2,0.3,0.4,0.5,0.5
	c0.7,0.8,1.4,1.5,2.1,2.3c0.1,0.1,0.2,0.2,0.3,0.3c0.7,0.7,1.4,1.3,2.1,2c0.1,0.1,0.2,0.2,0.3,0.3h-13.8
	c-18.2,0-34.5-11.5-40.7-28.7L146,103.8c-0.4-1-0.8-2-1.2-3c-0.1-0.2-0.2-0.4-0.3-0.6c-0.4-1-0.9-1.9-1.3-2.9
	c-0.1-0.1-0.1-0.3-0.2-0.4c-0.4-0.9-0.9-1.7-1.4-2.5c-0.1-0.2-0.2-0.3-0.3-0.5c-0.5-0.9-1.1-1.8-1.7-2.6c-0.1-0.2-0.2-0.4-0.4-0.5
	c-0.6-0.8-1.1-1.6-1.7-2.4c0-0.1-0.1-0.1-0.1-0.2c-0.6-0.8-1.3-1.6-2-2.4c-0.1-0.2-0.3-0.3-0.4-0.5c-0.7-0.8-1.4-1.5-2.1-2.3
	c-0.1-0.1-0.2-0.2-0.3-0.3c-0.7-0.7-1.4-1.3-2.1-2c-0.1-0.1-0.2-0.2-0.3-0.3h13.8C162.3,80.3,178.6,91.8,184.8,108.9z M61,59.9h15.2
	V65v38.3v119.2v5.1H61v-6.3v-155V59.9z"/>
<rect x="218.4" y="272.3" width="15.2" height="15.2"/>
<rect x="279.4" y="272.3" width="15.2" height="15.2"/>
<rect x="248.9" y="272.3" width="15.2" height="15.2"/>
<rect x="279.4" width="15.2" height="15.2"/>
<rect x="248.9" width="15.2" height="15.2"/>
<rect x="218.4" width="15.2" height="15.2"/>
</svg>
