<?xml version="1.0" encoding="iso-8859-1"?>
<!-- Generator: Adobe Illustrator 19.0.0, SVG Export Plug-In . SVG Version: 6.00 Build 0)  -->
<svg xmlns="http://www.w3.org/2000/svg" xmlns:xlink="http://www.w3.org/1999/xlink" version="1.1" id="Capa_1" x="0px" y="0px" viewBox="0 0 512 512" style="enable-background:new 0 0 512 512;" xml:space="preserve" width="512px" height="512px">
<g>
	<g>
		<path d="M106.603,0H61.531v67.862h45.072c15.359,0,27.854-12.495,27.854-27.854V27.854C134.457,12.495,121.962,0,106.603,0z     M119.264,40.008c0,6.982-5.679,12.661-12.661,12.661H76.724V15.193h29.879c6.982,0,12.661,5.679,12.661,12.661V40.008z" fill="#f8f9fa"/>
	</g>
</g>
<g>
	<g>
		<path d="M326.394,262.33H193.203c-16.399,0-31.578,7.45-41.644,20.438l12.008,9.306c7.167-9.248,17.968-14.553,29.635-14.553    h133.191c12.567,0,22.789,10.223,22.789,22.789v14.177h15.193v-14.176C364.376,279.369,347.338,262.33,326.394,262.33z" fill="#f8f9fa"/>
	</g>
</g>
<g>
	<g>
		<path d="M106.603,81.029H61.531v193.962c0,18.008,6.942,35.005,19.547,47.861l10.849-10.636    c-9.803-9.999-15.203-23.219-15.203-37.225V96.222h29.879c6.982,0,12.661,5.679,12.661,12.661v72.706h15.193v-72.706    C134.457,93.523,121.962,81.029,106.603,81.029z" fill="#f8f9fa"/>
	</g>
</g>
<g>
	<g>
		<path d="M348.006,496.807c-7.007-11.467-29.865-17.847-54.046-21.05l-10.569-108.089h55.157c12.567,0,22.789-10.223,22.789-22.789    c0-12.567-10.223-22.789-22.789-22.789H191.683c-27.645,0-50.136-22.492-50.136-50.137s22.492-50.136,50.136-50.136h138.255    v-7.596c0-20.944-17.038-37.982-37.982-37.982H191.683c-52.777,0-95.715,42.938-95.715,95.715s42.938,95.715,95.715,95.715h0.906    l-27.854,27.854h-21.669v15.193h27.961l41.456-41.456l-11.56,107.523c-21.481,3.465-40.732,9.672-47.059,20.026h-35.107V512    h32.918h198.52h31.905v-15.193H348.006z M199.28,191.43h92.677c9.904,0,18.353,6.351,21.488,15.193H199.28V191.43z     M191.683,352.475c-44.4,0-80.522-36.123-80.522-80.522c0-41.837,32.076-76.312,72.926-80.154v15.28    c-32.455,3.778-57.733,31.421-57.733,64.874c0,36.022,29.307,65.329,65.329,65.329h146.865c4.189,0,7.596,3.407,7.596,7.596    c0,4.189-3.407,7.596-7.596,7.596h-56.643h-67.616H191.683z M278.536,474.129c-9.822-0.792-19.351-1.124-27.6-1.124    c-10.176,0-22.297,0.505-34.514,1.756l11.514-107.094h40.19L278.536,474.129z M181.564,496.807    c2.703-0.883,5.858-1.774,9.523-2.638c16.334-3.851,37.589-5.972,59.849-5.972s43.514,2.121,59.849,5.972    c3.664,0.864,6.82,1.755,9.523,2.638H181.564z" fill="#f8f9fa"/>
	</g>
</g>
<g>
	<g>
		<polygon points="388.903,423.375 365.577,370.976 351.697,377.154 379.036,438.568 435.276,438.568 435.276,453.761     366.961,453.761 336.031,377.474 321.951,383.183 356.727,468.953 450.469,468.953 450.469,423.375   " fill="#f8f9fa"/>
	</g>
</g>
<g>
	<g>
		<rect x="240.807" y="444.138" width="15.193" height="15.193" fill="#f8f9fa"/>
	</g>
</g>
<g>
	<g>
		<rect x="240.807" y="383.367" width="15.193" height="15.193" fill="#f8f9fa"/>
	</g>
</g>
<g>
	<g>
		<rect x="240.807" y="413.753" width="15.193" height="15.193" fill="#f8f9fa"/>
	</g>
</g>
<g>
</g>
<g>
</g>
<g>
</g>
<g>
</g>
<g>
</g>
<g>
</g>
<g>
</g>
<g>
</g>
<g>
</g>
<g>
</g>
<g>
</g>
<g>
</g>
<g>
</g>
<g>
</g>
<g>
</g>
</svg>
